<svg width="1024" height="1024" viewBox="0 0 1024 1024" fill="none" xmlns="http://www.w3.org/2000/svg">
  <defs>
    <linearGradient id="bg" x1="0" y1="0" x2="1" y2="1">
      <stop offset="0%" stop-color="#0A0D14"/>
      <stop offset="100%" stop-color="#05070B"/>
    </linearGradient>
    <linearGradient id="blue" x1="0" y1="0" x2="1" y2="0">
      <stop offset="0%" stop-color="#47A1FF"/>
      <stop offset="100%" stop-color="#2F7DE1"/>
    </linearGradient>
    <linearGradient id="carBody" x1="0" y1="0" x2="1" y2="1">
      <stop offset="0%" stop-color="#FFFFFF"/>
      <stop offset="100%" stop-color="#DDE3EA"/>
    </linearGradient>
    <filter id="glow" x="-20%" y="-20%" width="140%" height="140%">
      <feGaussianBlur stdDeviation="6" result="blur"/>
      <feMerge>
        <feMergeNode in="blur"/>
        <feMergeNode in="SourceGraphic"/>
      </feMerge>
    </filter>
  </defs>

  <rect x="20" y="20" width="984" height="984" rx="180" fill="url(#bg)"/>
  <rect x="40" y="40" width="944" height="944" rx="160" stroke="#2F7DE1" stroke-opacity="0.55" stroke-width="10"/>

  <text x="512" y="250" text-anchor="middle" font-family="Arial Black, Arial, sans-serif" font-size="150" letter-spacing="3" fill="#FFFFFF">LUXURY</text>
  <text x="512" y="350" text-anchor="middle" font-family="Arial Black, Arial, sans-serif" font-size="92" letter-spacing="2" fill="url(#blue)" filter="url(#glow)">AUTO DETAILZ</text>

  <g transform="translate(120 430)">
    <path d="M72 274C91 185 143 113 230 88L468 74C548 72 606 99 650 150L714 226C733 249 744 273 744 303L744 356L60 356L72 274Z" fill="url(#carBody)"/>
    <path d="M260 108L472 97C531 95 572 112 604 148L640 190L194 196L226 140C235 124 246 115 260 108Z" fill="#0F1722"/>
    <path d="M160 356L744 356L720 410L94 410L160 356Z" fill="#0B0F15"/>

    <ellipse cx="233" cy="352" rx="84" ry="84" fill="#1A212C"/>
    <ellipse cx="233" cy="352" rx="56" ry="56" fill="#CBD3DC"/>
    <ellipse cx="233" cy="352" rx="26" ry="26" fill="#7F8A98"/>

    <ellipse cx="603" cy="352" rx="84" ry="84" fill="#1A212C"/>
    <ellipse cx="603" cy="352" rx="56" ry="56" fill="#CBD3DC"/>
    <ellipse cx="603" cy="352" rx="26" ry="26" fill="#7F8A98"/>

    <rect x="116" y="220" width="118" height="58" rx="16" fill="#DDE5EF"/>
    <rect x="616" y="220" width="92" height="52" rx="14" fill="#DDE5EF"/>

    <path d="M90 282L210 282" stroke="#2F7DE1" stroke-width="8" stroke-opacity="0.6"/>
    <path d="M548 282L712 282" stroke="#2F7DE1" stroke-width="8" stroke-opacity="0.6"/>
    <path d="M192 191L640 190" stroke="#89BFFF" stroke-opacity="0.5" stroke-width="5"/>
  </g>

  <rect x="120" y="900" width="784" height="8" rx="4" fill="#2F7DE1" fill-opacity="0.6"/>
</svg>
